<?xml version="1.0" standalone="no"?>
<!DOCTYPE svg PUBLIC "-//W3C//DTD SVG 20010904//EN"
 "http://www.w3.org/TR/2001/REC-SVG-20010904/DTD/svg10.dtd">
<svg version="1.0" xmlns="http://www.w3.org/2000/svg"
 width="1200.000000pt" height="800.000000pt" viewBox="0 0 1200.000000 800.000000"
 preserveAspectRatio="xMidYMid meet">
<g transform="translate(0.000000,800.000000) scale(0.100000,-0.100000)"
fill="#C07A4A" stroke="none">
<path d="M3536 6170 c-14 -68 -28 -568 -22 -804 4 -143 10 -264 12 -268 11
-18 22 -6 29 30 11 59 8 1029 -4 1049 -8 16 -10 15 -15 -7z"/>
<path d="M2607 5932 c23 -59 280 -525 365 -660 32 -51 58 -95 58 -98 0 -9 99
-152 110 -159 20 -13 8 22 -43 125 -124 245 -187 356 -351 608 -36 56 -66 104
-66 107 0 3 -12 23 -26 44 -27 42 -58 63 -47 33z"/>
<path d="M4387 5866 c-21 -31 -37 -58 -37 -61 0 -3 -31 -51 -68 -108 -74 -111
-169 -266 -222 -362 -18 -33 -43 -78 -55 -100 -13 -22 -38 -69 -57 -105 -19
-36 -45 -83 -57 -104 -25 -44 -14 -74 13 -34 53 75 212 326 257 406 11 18 25
43 33 55 7 12 29 51 48 87 19 36 50 92 68 125 18 33 45 83 60 110 15 28 37 68
49 89 36 63 9 64 -32 2z"/>
<path d="M1972 5368 c3 -7 31 -32 64 -56 328 -236 462 -330 544 -382 47 -29
116 -73 153 -97 119 -77 157 -95 157 -75 0 19 -628 462 -656 462 -2 0 -45 27
-94 60 -89 60 -156 100 -166 100 -3 0 -4 -6 -2 -12z"/>
<path d="M3260 5353 c0 -23 30 -155 39 -172 9 -15 10 -14 17 2 3 10 2 29 -5
43 -6 14 -11 37 -11 52 0 15 -9 41 -20 57 -11 17 -20 25 -20 18z"/>
<path d="M3768 5274 c-10 -19 -18 -43 -18 -54 0 -10 -5 -30 -11 -44 -14 -30
-4 -70 11 -46 6 8 10 26 10 41 0 14 4 29 9 35 9 9 27 104 20 104 -2 0 -12 -16
-21 -36z"/>
<path d="M4940 5243 c-8 -3 -33 -18 -55 -32 -22 -15 -53 -33 -70 -41 -16 -8
-48 -26 -70 -40 -22 -15 -83 -51 -135 -80 -116 -65 -500 -320 -500 -332 0 -13
17 -9 62 16 24 13 70 38 103 56 33 18 77 44 97 57 21 12 40 23 43 23 17 0 544
352 550 367 5 14 -1 15 -25 6z"/>
<path d="M3310 5136 c0 -14 5 -28 10 -31 6 -4 10 7 10 24 0 17 -4 31 -10 31
-5 0 -10 -11 -10 -24z"/>
<path d="M2820 5080 c0 -11 133 -150 145 -150 9 0 -36 63 -79 108 -36 39 -66
58 -66 42z"/>
<path d="M4100 4955 c-30 -30 -50 -55 -45 -55 12 0 50 33 90 78 48 53 13 36
-45 -23z"/>
<path d="M3353 4901 c-58 -10 -181 -73 -235 -121 -157 -138 -207 -369 -119
-556 43 -92 142 -190 323 -320 242 -174 342 -278 399 -419 21 -51 24 -76 24
-175 0 -115 0 -115 -43 -204 -53 -111 -130 -189 -236 -241 -75 -36 -201 -65
-286 -65 -59 0 -184 24 -257 50 -129 45 -256 158 -310 276 -23 50 -27 73 -27
154 -1 119 21 192 77 256 42 48 106 94 131 94 9 0 20 8 25 19 9 16 7 18 -17
14 -64 -10 -148 -67 -195 -130 -52 -73 -77 -154 -77 -255 0 -136 44 -242 143
-341 126 -125 296 -187 515 -187 247 0 459 104 585 287 70 102 97 185 97 305
0 241 -98 391 -398 610 -297 216 -368 296 -393 446 -21 130 27 261 129 352 82
74 158 100 283 100 97 0 105 -2 183 -39 117 -55 184 -127 234 -250 17 -43 22
-74 22 -150 0 -53 -4 -103 -9 -111 -16 -24 0 -33 17 -9 24 34 29 208 8 280
-33 112 -147 248 -246 292 -99 44 -224 58 -347 38z"/>
<path d="M2455 4701 c13 -14 153 -71 174 -71 10 0 22 -5 27 -10 6 -6 35 -13
65 -15 46 -5 50 -4 29 6 -14 6 -33 15 -42 20 -10 5 -22 9 -28 9 -6 0 -29 8
-53 18 -80 35 -190 63 -172 43z"/>
<path d="M4435 4664 c-49 -13 -99 -28 -110 -33 -11 -5 -42 -19 -70 -30 l-50
-22 49 6 c27 4 58 10 70 15 11 4 41 14 66 21 25 7 49 16 55 21 5 4 21 8 37 8
15 0 31 6 35 14 4 7 15 16 23 19 36 13 -19 3 -105 -19z"/>
<path d="M1635 4470 c-9 -14 6 -17 120 -25 55 -3 163 -10 240 -15 251 -17 781
-24 789 -12 9 15 -11 19 -169 32 -71 6 -177 15 -235 19 -153 13 -737 14 -745
1z"/>
<path d="M4575 4469 c-49 -4 -148 -13 -220 -19 -71 -6 -141 -14 -155 -17 -23
-4 -23 -5 -6 -15 21 -12 447 -4 646 12 63 5 158 12 210 15 122 8 149 13 129
26 -17 11 -477 10 -604 -2z"/>
<path d="M2725 4230 c-11 -5 -34 -9 -52 -9 -18 -1 -42 -5 -55 -10 -13 -5 -35
-12 -50 -15 -40 -9 -36 -29 5 -23 71 12 119 25 130 36 6 6 24 11 40 11 16 0
26 4 22 10 -7 12 -13 12 -40 0z"/>
<path d="M4653 3846 c-175 -43 -322 -191 -362 -366 -36 -154 20 -351 126 -451
103 -97 184 -130 335 -137 90 -3 117 -1 174 18 161 52 282 182 324 348 24 94
24 125 4 222 -20 96 -45 147 -111 220 -119 131 -312 189 -490 146z m257 -63
c97 -49 181 -154 216 -273 11 -37 16 -90 16 -161 -1 -137 -32 -224 -106 -306
-73 -80 -127 -104 -240 -106 -80 -2 -98 1 -148 25 -77 37 -132 88 -174 165
-50 89 -67 160 -67 279 1 112 19 180 75 267 33 51 67 80 138 114 36 18 64 22
140 22 84 1 101 -2 150 -26z"/>
<path d="M9517 3848 c-9 -7 -26 -40 -38 -73 -11 -33 -34 -88 -50 -121 -16 -34
-29 -65 -29 -68 0 -3 -11 -29 -25 -58 -14 -28 -25 -55 -25 -60 0 -5 -9 -27
-19 -51 -31 -68 -101 -237 -101 -242 0 -3 -8 -24 -19 -48 -10 -23 -24 -58 -31
-77 -21 -56 -59 -100 -101 -117 -68 -27 -43 -37 90 -35 68 1 126 3 128 6 4 4
-8 13 -62 43 -22 12 -26 67 -7 106 5 12 25 60 43 107 18 47 37 88 43 92 6 5
89 7 185 5 l175 -2 38 -95 c22 -52 47 -115 56 -139 9 -25 40 -68 67 -96 39
-41 64 -56 117 -74 67 -22 166 -26 161 -6 -2 6 -27 18 -56 28 -97 32 -132 81
-227 312 -34 83 -80 193 -102 245 -78 184 -90 216 -128 320 -21 58 -44 106
-51 108 -8 1 -22 -3 -32 -10z m-8 -185 c7 -16 30 -73 51 -128 21 -55 47 -118
58 -140 11 -22 22 -52 25 -66 l7 -26 -155 1 c-149 1 -155 2 -155 21 0 12 4 25
9 30 7 8 96 234 124 318 9 25 22 21 36 -10z"/>
<path d="M5760 3837 c0 -4 16 -15 35 -23 21 -8 40 -25 45 -40 16 -40 13 -773
-3 -804 -7 -14 -27 -31 -45 -39 -37 -17 -37 -37 -1 -33 13 1 154 4 313 5 l289
2 23 80 c24 83 30 125 16 125 -4 0 -25 -25 -47 -55 -60 -84 -118 -109 -260
-113 -99 -3 -113 -1 -135 16 l-25 20 0 400 c0 433 -1 425 56 437 16 4 29 12
29 19 0 8 -39 12 -145 12 -80 0 -145 -4 -145 -9z"/>
<path d="M6950 3833 c0 -7 12 -16 28 -19 52 -13 51 -10 52 -431 0 -415 -2
-438 -46 -449 -29 -7 -53 -33 -33 -35 8 -1 19 0 24 1 6 1 146 2 312 1 l302 -2
7 28 c3 15 15 55 25 87 23 72 24 86 4 86 -8 0 -15 -4 -15 -9 0 -5 -20 -32 -45
-59 -64 -71 -123 -92 -256 -92 -95 0 -135 9 -151 34 -4 6 -8 100 -8 210 l0
199 110 -5 c124 -5 161 -21 170 -74 3 -16 12 -30 20 -32 13 -2 15 17 15 118 0
101 -2 120 -14 118 -8 -2 -18 -14 -21 -28 -10 -43 -53 -58 -170 -61 l-105 -3
0 195 0 194 100 3 c165 5 238 -21 284 -100 34 -60 47 -38 32 53 -6 40 -14 76
-17 80 -2 4 -139 7 -304 6 -232 -1 -300 -5 -300 -14z"/>
<path d="M8230 3834 c0 -7 13 -15 29 -19 56 -12 56 -7 59 -414 4 -425 2 -444
-54 -467 -36 -15 -42 -41 -8 -36 24 4 212 4 239 0 33 -5 23 25 -12 35 -23 7
-35 18 -42 40 -15 41 -15 781 -1 808 6 10 27 26 47 34 20 8 33 19 29 23 -4 4
-70 7 -147 8 -106 1 -139 -2 -139 -12z"/>
<path d="M7264 2394 c3 -9 6 -18 6 -20 0 -2 9 -4 21 -4 15 0 19 4 15 16 -3 9
-6 18 -6 20 0 2 -9 4 -21 4 -15 0 -19 -4 -15 -16z"/>
<path d="M3137 2353 c-5 -7 -11 -149 -8 -180 1 -7 8 -13 16 -13 10 0 15 15 17
58 l3 57 24 -47 c14 -27 31 -48 38 -48 7 0 23 21 35 48 l23 47 5 -55 c4 -40 9
-56 21 -58 23 -4 26 11 19 108 -4 76 -7 85 -25 85 -14 0 -28 -17 -49 -60 l-29
-60 -28 63 c-25 56 -49 77 -62 55z"/>
<path d="M3486 2338 c-9 -12 -16 -27 -16 -33 0 -6 -9 -29 -19 -51 -30 -62 -36
-94 -18 -94 8 0 22 11 31 25 11 17 26 25 45 25 20 0 34 -8 45 -25 9 -14 21
-25 27 -25 22 0 19 30 -9 91 -16 35 -32 74 -36 87 -9 28 -30 28 -50 0z m38
-64 c10 -26 7 -34 -14 -34 -11 0 -20 4 -20 9 0 17 12 41 20 41 4 0 11 -7 14
-16z"/>
<path d="M3707 2342 c-20 -22 -22 -67 -4 -79 6 -4 25 -12 42 -18 42 -14 46
-45 6 -45 -16 0 -33 5 -36 10 -4 6 -11 8 -16 5 -18 -12 -8 -35 22 -51 26 -13
36 -14 61 -3 57 24 55 96 -4 114 -37 12 -50 26 -37 41 8 10 16 10 35 2 34 -16
57 5 28 27 -27 20 -78 19 -97 -3z"/>
<path d="M3932 2337 c-38 -40 -24 -71 42 -92 17 -5 32 -18 34 -28 3 -16 -2
-18 -40 -15 -53 4 -61 -11 -20 -35 28 -16 33 -17 60 -3 67 35 65 80 -7 112
-55 24 -56 49 -1 40 35 -5 40 -4 40 13 0 38 -75 43 -108 8z"/>
<path d="M4203 2348 c-5 -7 -20 -40 -33 -73 -13 -33 -27 -64 -32 -69 -4 -6 -8
-18 -8 -29 0 -26 32 -18 45 11 15 33 77 32 93 -3 11 -23 42 -36 42 -16 0 16
-49 143 -65 167 -17 27 -28 30 -42 12z m36 -100 c1 -5 -8 -8 -19 -8 -23 0 -24
4 -8 33 11 21 11 21 19 2 4 -11 8 -23 8 -27z"/>
<path d="M4417 2332 c-33 -34 -37 -104 -9 -137 33 -40 66 -49 109 -33 34 14
38 19 41 57 3 40 2 41 -27 41 -35 0 -52 -19 -23 -27 33 -8 15 -33 -24 -33 -37
0 -54 20 -54 64 0 41 26 59 77 51 47 -7 58 7 26 31 -32 24 -86 17 -116 -14z"/>
<path d="M4673 2354 c-14 -6 -19 -147 -7 -178 8 -21 119 -23 127 -2 8 21 -2
26 -50 26 -36 0 -43 3 -43 19 0 21 19 31 57 31 39 0 21 25 -21 28 -29 3 -36 7
-34 20 2 12 15 18 46 20 34 3 43 7 40 20 -2 13 -15 17 -53 19 -28 1 -56 0 -62
-3z"/>
<path d="M4907 2342 c-20 -22 -22 -65 -4 -79 6 -6 26 -15 42 -20 41 -13 46
-43 8 -43 -16 0 -33 4 -39 10 -13 13 -38 -4 -32 -22 3 -7 22 -19 42 -26 33
-12 39 -11 65 7 53 38 42 92 -22 109 -19 5 -33 16 -35 27 -4 16 1 17 35 12 48
-8 59 0 36 25 -21 23 -75 23 -96 0z"/>
<path d="M5270 2340 c-37 -37 -21 -73 48 -100 40 -16 43 -40 4 -40 -15 0 -33
5 -39 11 -6 6 -16 8 -22 5 -21 -13 -11 -36 24 -53 30 -15 38 -15 61 -2 15 7
33 24 42 36 13 20 13 26 -1 47 -9 13 -32 29 -52 36 -20 7 -35 18 -35 27 0 13
8 14 40 9 31 -5 40 -3 40 9 0 36 -78 47 -110 15z"/>
<path d="M5518 2340 c-41 -31 -52 -71 -34 -113 14 -34 66 -77 92 -77 19 0 75
44 91 71 20 34 11 73 -27 110 -34 35 -85 39 -122 9z m96 -36 c19 -18 21 -75 4
-92 -18 -18 -69 -15 -84 6 -44 58 30 137 80 86z"/>
<path d="M5770 2262 l0 -100 38 -3 c58 -6 84 0 80 19 -2 12 -15 18 -40 20
l-37 3 -3 77 c-3 64 -6 77 -20 80 -16 3 -18 -7 -18 -96z"/>
<path d="M6026 2331 c-9 -16 -16 -35 -16 -41 0 -6 -9 -30 -20 -52 -11 -23 -20
-50 -20 -60 0 -26 24 -22 40 7 10 19 22 25 45 25 24 0 35 -6 43 -25 15 -32 42
-33 41 -2 -1 37 -63 172 -81 175 -10 2 -23 -8 -32 -27z m44 -71 c0 -11 -7 -20
-15 -20 -8 0 -15 9 -15 20 0 11 7 20 15 20 8 0 15 -9 15 -20z"/>
<path d="M6237 2354 c-10 -10 -8 -166 2 -183 5 -8 16 -11 25 -8 24 9 19 190
-4 195 -9 1 -19 0 -23 -4z"/>
<path d="M6392 2347 c-6 -7 -9 -46 -7 -92 4 -101 2 -95 20 -95 15 0 19 16 16
53 -3 24 36 23 44 -2 8 -26 42 -54 55 -46 7 4 5 16 -7 35 -16 27 -16 31 1 63
15 27 16 37 7 56 -20 37 -106 56 -129 28z m83 -52 c0 -22 -31 -33 -47 -17 -17
17 -1 44 24 40 15 -2 23 -10 23 -23z"/>
<path d="M6637 2353 c-4 -3 -7 -49 -7 -100 l0 -94 63 3 c47 2 62 7 62 18 0 11
-13 16 -43 18 -38 3 -43 6 -40 25 2 17 11 23 36 25 42 4 37 26 -7 30 -46 5
-39 36 9 40 34 4 53 18 44 34 -6 10 -108 11 -117 1z"/>
<path d="M6872 2344 c-14 -9 -22 -26 -22 -44 0 -24 7 -31 50 -51 28 -13 49
-28 47 -33 -5 -15 -55 -20 -71 -7 -7 6 -16 8 -19 4 -16 -15 -4 -35 29 -49 33
-14 38 -13 67 4 41 23 47 62 16 91 -13 12 -30 21 -40 21 -22 0 -44 26 -30 35
6 3 26 3 46 -1 28 -5 35 -3 35 10 0 34 -69 47 -108 20z"/>
<path d="M7265 2318 c-9 -24 -26 -60 -36 -81 -24 -50 -25 -80 -1 -75 9 2 21
13 27 26 14 33 68 31 83 -3 7 -15 20 -25 32 -25 26 0 25 10 -4 73 -13 29 -29
69 -37 90 -18 50 -41 48 -64 -5z m45 -58 c0 -11 -7 -20 -15 -20 -8 0 -15 9
-15 20 0 11 7 20 15 20 8 0 15 -9 15 -20z"/>
<path d="M7622 2347 c-7 -8 -9 -42 -4 -97 l7 -85 59 1 c52 1 63 5 83 28 39 46
25 124 -28 152 -35 18 -103 18 -117 1z m106 -43 c43 -30 16 -104 -39 -104 -29
0 -29 0 -29 60 0 56 2 60 23 60 12 0 33 -7 45 -16z"/>
<path d="M7903 2325 c-31 -31 -35 -40 -30 -72 11 -66 77 -114 128 -92 73 30
93 117 40 170 -43 43 -92 40 -138 -6z m111 -21 c19 -19 20 -63 2 -86 -15 -21
-66 -24 -84 -6 -17 17 -15 74 4 92 8 9 26 16 39 16 13 0 31 -7 39 -16z"/>
<path d="M8177 2353 c-3 -5 -7 -48 -8 -98 -3 -75 -1 -90 11 -90 11 0 16 16 20
60 l5 60 19 -47 c29 -74 42 -79 66 -25 30 66 40 67 40 3 0 -41 4 -56 14 -56 8
0 16 6 18 13 7 18 1 163 -7 177 -14 23 -38 4 -59 -48 -11 -30 -25 -55 -31 -55
-5 -1 -14 12 -20 29 -19 59 -55 99 -68 77z"/>
<path d="M8477 2353 c-4 -3 -7 -48 -7 -100 0 -85 2 -93 19 -93 24 0 29 16 31
104 1 75 -18 115 -43 89z"/>
<path d="M8636 2329 c-49 -57 -27 -139 44 -169 25 -10 35 -10 65 4 34 16 45
39 26 51 -5 3 -21 0 -35 -6 -13 -6 -36 -9 -50 -5 -24 6 -26 11 -26 56 0 45 2
50 26 56 14 4 37 1 50 -5 33 -15 44 -14 44 3 0 23 -41 46 -81 46 -29 0 -43 -7
-63 -31z"/>
<path d="M8879 2353 c-4 -41 -6 -162 -2 -175 2 -10 13 -18 24 -18 18 0 20 6
17 97 -3 84 -6 98 -20 101 -10 2 -18 0 -19 -5z"/>
<path d="M9028 2348 c-3 -7 -3 -52 0 -100 l4 -86 46 -7 c33 -5 48 -3 60 8 21
21 7 37 -33 37 l-34 0 -3 77 c-2 62 -6 78 -19 81 -9 2 -19 -3 -21 -10z"/>
<path d="M9244 2349 c-9 -16 -7 -170 3 -179 16 -16 101 -19 113 -5 18 22 3 35
-41 35 -35 0 -39 3 -39 25 0 22 4 25 35 25 24 0 35 5 35 15 0 10 -11 15 -35
15 -28 0 -35 4 -35 20 0 17 7 20 40 20 33 0 40 3 40 20 0 18 -7 20 -54 20 -30
0 -58 -5 -62 -11z"/>
<path d="M2195 2269 c-4 -6 -5 -12 -3 -14 6 -6 658 -8 664 -2 4 3 3 10 -1 16
-9 15 -651 15 -660 0z"/>
<path d="M9635 2269 c-4 -5 -5 -13 -2 -16 3 -2 153 -5 334 -6 284 -1 328 0
328 13 0 13 -46 15 -327 18 -226 1 -329 -1 -333 -9z"/>
</g>
</svg>
